<?xml version="1.0" encoding="utf-8" standalone="no"?>
<!DOCTYPE svg PUBLIC "-//W3C//DTD SVG 1.1//EN"
  "http://www.w3.org/Graphics/SVG/1.1/DTD/svg11.dtd">
<!-- Created with matplotlib (http://matplotlib.org/) -->
<svg height="432pt" version="1.1" viewBox="0 0 360 432" width="360pt" xmlns="http://www.w3.org/2000/svg" xmlns:xlink="http://www.w3.org/1999/xlink">
 <defs>
  <style type="text/css">
*{stroke-linecap:butt;stroke-linejoin:round;}
  </style>
 </defs>
 <g id="figure_1">
  <g id="patch_1">
   <path d="
M0 432
L360 432
L360 0
L0 0
z
" style="fill:#ffffff;"/>
  </g>
  <g id="axes_1">
   <g id="patch_2">
    <path d="
M53.955 179.892
L340.594 179.892
L340.594 26.168
L53.955 26.168
z
" style="fill:#ffffff;"/>
   </g>
   <g id="line2d_1">
    <path clip-path="url(#p780b471650)" d="
M53.955 147.288
L97.0985 98.7623
L140.242 66.948
L165.479 59.55
L183.385 57.2222
L197.275 49.1263
L218.218 37.3057
L226.529 36.3856
L233.86 47.3919
L251.766 45.3949
L269.672 34.7858
L294.91 34.1135
L312.816 32.5318" style="fill:none;stroke:#ff0000;stroke-linecap:square;stroke-width:2;"/>
   </g>
   <g id="line2d_2">
    <path clip-path="url(#p780b471650)" d="
M53.955 147.288
L340.594 147.288" style="fill:none;stroke:#000000;stroke-dasharray:6.000000,6.000000;stroke-dashoffset:0.0;"/>
   </g>
   <g id="line2d_3">
    <path clip-path="url(#p780b471650)" d="
M97.0985 333.616
L97.0985 -1" style="fill:none;stroke:#0000ff;stroke-dasharray:1.000000,3.000000;stroke-dashoffset:0.0;"/>
   </g>
   <g id="line2d_4">
    <path clip-path="url(#p780b471650)" d="
M140.242 333.616
L140.242 -1" style="fill:none;stroke:#0000ff;stroke-dasharray:1.000000,3.000000;stroke-dashoffset:0.0;"/>
   </g>
   <g id="line2d_5">
    <path clip-path="url(#p780b471650)" d="
M183.385 333.616
L183.385 -1" style="fill:none;stroke:#0000ff;stroke-dasharray:1.000000,3.000000;stroke-dashoffset:0.0;"/>
   </g>
   <g id="line2d_6">
    <path clip-path="url(#p780b471650)" d="
M226.529 333.616
L226.529 -1" style="fill:none;stroke:#0000ff;stroke-dasharray:1.000000,3.000000;stroke-dashoffset:0.0;"/>
   </g>
   <g id="line2d_7">
    <path clip-path="url(#p780b471650)" d="
M269.672 333.616
L269.672 -1" style="fill:none;stroke:#0000ff;stroke-dasharray:1.000000,3.000000;stroke-dashoffset:0.0;"/>
   </g>
   <g id="line2d_8">
    <path clip-path="url(#p780b471650)" d="
M312.816 333.616
L312.816 -1" style="fill:none;stroke:#0000ff;stroke-dasharray:1.000000,3.000000;stroke-dashoffset:0.0;"/>
   </g>
   <g id="line2d_9">
    <path clip-path="url(#p780b471650)" d="
M355.959 333.616
L355.959 -1" style="fill:none;stroke:#0000ff;stroke-dasharray:1.000000,3.000000;stroke-dashoffset:0.0;"/>
   </g>
   <g id="line2d_10">
    <path clip-path="url(#p780b471650)" d="
M399.103 333.616" style="fill:none;stroke:#0000ff;stroke-dasharray:1.000000,3.000000;stroke-dashoffset:0.0;"/>
   </g>
   <g id="line2d_11">
    <path clip-path="url(#p780b471650)" d="
M442.246 333.616" style="fill:none;stroke:#0000ff;stroke-dasharray:1.000000,3.000000;stroke-dashoffset:0.0;"/>
   </g>
   <g id="patch_3">
    <path d="
M53.955 26.168
L340.594 26.168" style="fill:none;stroke:#000000;stroke-linecap:square;stroke-linejoin:miter;"/>
   </g>
   <g id="patch_4">
    <path d="
M340.594 179.892
L340.594 26.168" style="fill:none;stroke:#000000;stroke-linecap:square;stroke-linejoin:miter;"/>
   </g>
   <g id="patch_5">
    <path d="
M53.955 179.892
L340.594 179.892" style="fill:none;stroke:#000000;stroke-linecap:square;stroke-linejoin:miter;"/>
   </g>
   <g id="patch_6">
    <path d="
M53.955 179.892
L53.955 26.168" style="fill:none;stroke:#000000;stroke-linecap:square;stroke-linejoin:miter;"/>
   </g>
   <g id="matplotlib.axis_1">
    <g id="xtick_1">
     <g id="line2d_12">
      <defs>
       <path d="
M0 0
L0 -4" id="m93b0483c22" style="stroke:#000000;stroke-width:0.5;"/>
      </defs>
      <g>
       <use style="stroke:#000000;stroke-width:0.5;" x="53.955" xlink:href="#m93b0483c22" y="179.892"/>
      </g>
     </g>
     <g id="line2d_13">
      <defs>
       <path d="
M0 0
L0 4" id="m741efc42ff" style="stroke:#000000;stroke-width:0.5;"/>
      </defs>
      <g>
       <use style="stroke:#000000;stroke-width:0.5;" x="53.955" xlink:href="#m741efc42ff" y="26.168"/>
      </g>
     </g>
     <g id="text_1">
      <!-- $\mathdefault{10^{0}}$ -->
      <defs>
       <path d="
M31.7812 3.42188
Q39.2656 3.42188 42.9688 11.625
Q46.6875 19.8281 46.6875 36.375
Q46.6875 52.9844 42.9688 61.1875
Q39.2656 69.3906 31.7812 69.3906
Q24.3125 69.3906 20.5938 61.1875
Q16.8906 52.9844 16.8906 36.375
Q16.8906 19.8281 20.5938 11.625
Q24.3125 3.42188 31.7812 3.42188
M31.7812 -1.42188
Q19.9219 -1.42188 13.25 8.53125
Q6.59375 18.5 6.59375 36.375
Q6.59375 54.2969 13.25 64.25
Q19.9219 74.2188 31.7812 74.2188
Q43.7031 74.2188 50.3438 64.25
Q56.9844 54.2969 56.9844 36.375
Q56.9844 18.5 50.3438 8.53125
Q43.7031 -1.42188 31.7812 -1.42188" id="DejaVuSerif-30"/>
       <path d="
M14.2031 0
L14.2031 5.17188
L26.9062 5.17188
L26.9062 65.8281
L12.2031 56.2969
L12.2031 62.7031
L29.9844 74.2188
L36.7188 74.2188
L36.7188 5.17188
L49.4219 5.17188
L49.4219 0
z
" id="DejaVuSerif-31"/>
      </defs>
      <g transform="translate(44.805 193.1123125)scale(0.1 -0.1)">
       <use transform="translate(0.0 0.4)" xlink:href="#DejaVuSerif-31"/>
       <use transform="translate(63.623046875 0.4)" xlink:href="#DejaVuSerif-30"/>
       <use transform="translate(127.24609375 59.046875)scale(0.7)" xlink:href="#DejaVuSerif-30"/>
      </g>
     </g>
    </g>
    <g id="xtick_2">
     <g id="line2d_14">
      <g>
       <use style="stroke:#000000;stroke-width:0.5;" x="197.274528809" xlink:href="#m93b0483c22" y="179.892"/>
      </g>
     </g>
     <g id="line2d_15">
      <g>
       <use style="stroke:#000000;stroke-width:0.5;" x="197.274528809" xlink:href="#m741efc42ff" y="26.168"/>
      </g>
     </g>
     <g id="text_2">
      <!-- $\mathdefault{10^{1}}$ -->
      <g transform="translate(188.124528809 193.1123125)scale(0.1 -0.1)">
       <use transform="translate(0.0 0.4)" xlink:href="#DejaVuSerif-31"/>
       <use transform="translate(63.623046875 0.4)" xlink:href="#DejaVuSerif-30"/>
       <use transform="translate(127.24609375 59.046875)scale(0.7)" xlink:href="#DejaVuSerif-31"/>
      </g>
     </g>
    </g>
    <g id="xtick_3">
     <g id="line2d_16">
      <g>
       <use style="stroke:#000000;stroke-width:0.5;" x="340.594057617" xlink:href="#m93b0483c22" y="179.892"/>
      </g>
     </g>
     <g id="line2d_17">
      <g>
       <use style="stroke:#000000;stroke-width:0.5;" x="340.594057617" xlink:href="#m741efc42ff" y="26.168"/>
      </g>
     </g>
     <g id="text_3">
      <!-- $\mathdefault{10^{2}}$ -->
      <defs>
       <path d="
M12.7969 55.5156
L7.32812 55.5156
L7.32812 68.5
Q12.5469 71.2969 17.8438 72.75
Q23.1406 74.2188 28.2188 74.2188
Q39.5938 74.2188 46.1875 68.7031
Q52.7812 63.1875 52.7812 53.7188
Q52.7812 43.0156 37.8438 28.125
Q36.6719 27 36.0781 26.4219
L17.6719 8.01562
L48.0938 8.01562
L48.0938 17
L53.8125 17
L53.8125 0
L6.78125 0
L6.78125 5.32812
L28.9062 27.3906
Q36.2344 34.7188 39.3594 40.8438
Q42.4844 46.9688 42.4844 53.7188
Q42.4844 61.0781 38.6406 65.2344
Q34.8125 69.3906 28.0781 69.3906
Q21.0938 69.3906 17.2812 65.9219
Q13.4844 62.4531 12.7969 55.5156" id="DejaVuSerif-32"/>
      </defs>
      <g transform="translate(331.444057617 193.1123125)scale(0.1 -0.1)">
       <use transform="translate(0.0 0.4)" xlink:href="#DejaVuSerif-31"/>
       <use transform="translate(63.623046875 0.4)" xlink:href="#DejaVuSerif-30"/>
       <use transform="translate(127.24609375 59.046875)scale(0.7)" xlink:href="#DejaVuSerif-32"/>
      </g>
     </g>
    </g>
    <g id="xtick_4">
     <g id="line2d_18">
      <defs>
       <path d="
M0 0
L0 -2" id="m177f7580d0" style="stroke:#000000;stroke-width:0.5;"/>
      </defs>
      <g>
       <use style="stroke:#000000;stroke-width:0.5;" x="97.0984771358" xlink:href="#m177f7580d0" y="179.892"/>
      </g>
     </g>
     <g id="line2d_19">
      <defs>
       <path d="
M0 0
L0 2" id="m5284c7e2a0" style="stroke:#000000;stroke-width:0.5;"/>
      </defs>
      <g>
       <use style="stroke:#000000;stroke-width:0.5;" x="97.0984771358" xlink:href="#m5284c7e2a0" y="26.168"/>
      </g>
     </g>
    </g>
    <g id="xtick_5">
     <g id="line2d_20">
      <g>
       <use style="stroke:#000000;stroke-width:0.5;" x="122.335793411" xlink:href="#m177f7580d0" y="179.892"/>
      </g>
     </g>
     <g id="line2d_21">
      <g>
       <use style="stroke:#000000;stroke-width:0.5;" x="122.335793411" xlink:href="#m5284c7e2a0" y="26.168"/>
      </g>
     </g>
    </g>
    <g id="xtick_6">
     <g id="line2d_22">
      <g>
       <use style="stroke:#000000;stroke-width:0.5;" x="140.241954272" xlink:href="#m177f7580d0" y="179.892"/>
      </g>
     </g>
     <g id="line2d_23">
      <g>
       <use style="stroke:#000000;stroke-width:0.5;" x="140.241954272" xlink:href="#m5284c7e2a0" y="26.168"/>
      </g>
     </g>
    </g>
    <g id="xtick_7">
     <g id="line2d_24">
      <g>
       <use style="stroke:#000000;stroke-width:0.5;" x="154.131051673" xlink:href="#m177f7580d0" y="179.892"/>
      </g>
     </g>
     <g id="line2d_25">
      <g>
       <use style="stroke:#000000;stroke-width:0.5;" x="154.131051673" xlink:href="#m5284c7e2a0" y="26.168"/>
      </g>
     </g>
    </g>
    <g id="xtick_8">
     <g id="line2d_26">
      <g>
       <use style="stroke:#000000;stroke-width:0.5;" x="165.479270547" xlink:href="#m177f7580d0" y="179.892"/>
      </g>
     </g>
     <g id="line2d_27">
      <g>
       <use style="stroke:#000000;stroke-width:0.5;" x="165.479270547" xlink:href="#m5284c7e2a0" y="26.168"/>
      </g>
     </g>
    </g>
    <g id="xtick_9">
     <g id="line2d_28">
      <g>
       <use style="stroke:#000000;stroke-width:0.5;" x="175.074052892" xlink:href="#m177f7580d0" y="179.892"/>
      </g>
     </g>
     <g id="line2d_29">
      <g>
       <use style="stroke:#000000;stroke-width:0.5;" x="175.074052892" xlink:href="#m5284c7e2a0" y="26.168"/>
      </g>
     </g>
    </g>
    <g id="xtick_10">
     <g id="line2d_30">
      <g>
       <use style="stroke:#000000;stroke-width:0.5;" x="183.385431407" xlink:href="#m177f7580d0" y="179.892"/>
      </g>
     </g>
     <g id="line2d_31">
      <g>
       <use style="stroke:#000000;stroke-width:0.5;" x="183.385431407" xlink:href="#m5284c7e2a0" y="26.168"/>
      </g>
     </g>
    </g>
    <g id="xtick_11">
     <g id="line2d_32">
      <g>
       <use style="stroke:#000000;stroke-width:0.5;" x="190.716586822" xlink:href="#m177f7580d0" y="179.892"/>
      </g>
     </g>
     <g id="line2d_33">
      <g>
       <use style="stroke:#000000;stroke-width:0.5;" x="190.716586822" xlink:href="#m5284c7e2a0" y="26.168"/>
      </g>
     </g>
    </g>
    <g id="xtick_12">
     <g id="line2d_34">
      <g>
       <use style="stroke:#000000;stroke-width:0.5;" x="240.418005944" xlink:href="#m177f7580d0" y="179.892"/>
      </g>
     </g>
     <g id="line2d_35">
      <g>
       <use style="stroke:#000000;stroke-width:0.5;" x="240.418005944" xlink:href="#m5284c7e2a0" y="26.168"/>
      </g>
     </g>
    </g>
    <g id="xtick_13">
     <g id="line2d_36">
      <g>
       <use style="stroke:#000000;stroke-width:0.5;" x="265.65532222" xlink:href="#m177f7580d0" y="179.892"/>
      </g>
     </g>
     <g id="line2d_37">
      <g>
       <use style="stroke:#000000;stroke-width:0.5;" x="265.65532222" xlink:href="#m5284c7e2a0" y="26.168"/>
      </g>
     </g>
    </g>
    <g id="xtick_14">
     <g id="line2d_38">
      <g>
       <use style="stroke:#000000;stroke-width:0.5;" x="283.56148308" xlink:href="#m177f7580d0" y="179.892"/>
      </g>
     </g>
     <g id="line2d_39">
      <g>
       <use style="stroke:#000000;stroke-width:0.5;" x="283.56148308" xlink:href="#m5284c7e2a0" y="26.168"/>
      </g>
     </g>
    </g>
    <g id="xtick_15">
     <g id="line2d_40">
      <g>
       <use style="stroke:#000000;stroke-width:0.5;" x="297.450580481" xlink:href="#m177f7580d0" y="179.892"/>
      </g>
     </g>
     <g id="line2d_41">
      <g>
       <use style="stroke:#000000;stroke-width:0.5;" x="297.450580481" xlink:href="#m5284c7e2a0" y="26.168"/>
      </g>
     </g>
    </g>
    <g id="xtick_16">
     <g id="line2d_42">
      <g>
       <use style="stroke:#000000;stroke-width:0.5;" x="308.798799355" xlink:href="#m177f7580d0" y="179.892"/>
      </g>
     </g>
     <g id="line2d_43">
      <g>
       <use style="stroke:#000000;stroke-width:0.5;" x="308.798799355" xlink:href="#m5284c7e2a0" y="26.168"/>
      </g>
     </g>
    </g>
    <g id="xtick_17">
     <g id="line2d_44">
      <g>
       <use style="stroke:#000000;stroke-width:0.5;" x="318.393581701" xlink:href="#m177f7580d0" y="179.892"/>
      </g>
     </g>
     <g id="line2d_45">
      <g>
       <use style="stroke:#000000;stroke-width:0.5;" x="318.393581701" xlink:href="#m5284c7e2a0" y="26.168"/>
      </g>
     </g>
    </g>
    <g id="xtick_18">
     <g id="line2d_46">
      <g>
       <use style="stroke:#000000;stroke-width:0.5;" x="326.704960216" xlink:href="#m177f7580d0" y="179.892"/>
      </g>
     </g>
     <g id="line2d_47">
      <g>
       <use style="stroke:#000000;stroke-width:0.5;" x="326.704960216" xlink:href="#m5284c7e2a0" y="26.168"/>
      </g>
     </g>
    </g>
    <g id="xtick_19">
     <g id="line2d_48">
      <g>
       <use style="stroke:#000000;stroke-width:0.5;" x="334.036115631" xlink:href="#m177f7580d0" y="179.892"/>
      </g>
     </g>
     <g id="line2d_49">
      <g>
       <use style="stroke:#000000;stroke-width:0.5;" x="334.036115631" xlink:href="#m5284c7e2a0" y="26.168"/>
      </g>
     </g>
    </g>
    <g id="text_4">
     <!-- number of cores -->
     <defs>
      <path d="
M54.2031 25
L15.4844 25
L15.4844 24.6094
Q15.4844 14.1094 19.4375 8.76562
Q23.3906 3.42188 31.1094 3.42188
Q37.0156 3.42188 40.7969 6.51562
Q44.5781 9.625 46.0938 15.7188
L53.3281 15.7188
Q51.1719 7.17188 45.375 2.875
Q39.5938 -1.42188 30.1719 -1.42188
Q18.7969 -1.42188 11.8906 6.07812
Q4.98438 13.5781 4.98438 25.9844
Q4.98438 38.2812 11.7656 45.7969
Q18.5625 53.3281 29.5938 53.3281
Q41.3594 53.3281 47.6562 46.0625
Q53.9531 38.8125 54.2031 25
M43.6094 30.1719
Q43.3125 39.2656 39.7656 43.875
Q36.2344 48.4844 29.5938 48.4844
Q23.3906 48.4844 19.8281 43.8438
Q16.2656 39.2031 15.4844 30.1719
z
" id="DejaVuSerif-65"/>
      <path d="
M35.4062 51.9062
L52.2031 51.9062
L52.2031 5.17188
L60.6875 5.17188
L60.6875 0
L43.2188 0
L43.2188 9.1875
Q40.7188 4 36.7656 1.28125
Q32.8125 -1.42188 27.5938 -1.42188
Q18.9531 -1.42188 14.875 3.48438
Q10.7969 8.40625 10.7969 18.8906
L10.7969 46.6875
L2.6875 46.6875
L2.6875 51.9062
L19.8281 51.9062
L19.8281 21.6875
Q19.8281 12.2031 22.1406 8.6875
Q24.4688 5.17188 30.4219 5.17188
Q36.6719 5.17188 39.9375 9.76562
Q43.2188 14.3594 43.2188 23.0938
L43.2188 46.6875
L35.4062 46.6875
z
" id="DejaVuSerif-75"/>
      <path d="
M47.7969 52
L47.7969 39.0156
L42.625 39.0156
Q42.3906 42.875 40.4844 44.7812
Q38.5781 46.6875 34.9062 46.6875
Q28.2656 46.6875 24.7188 42.0938
Q21.1875 37.5 21.1875 28.9062
L21.1875 5.17188
L31.5938 5.17188
L31.5938 0
L4.10938 0
L4.10938 5.17188
L12.2031 5.17188
L12.2031 46.7812
L3.60938 46.7812
L3.60938 51.9062
L21.1875 51.9062
L21.1875 42.6719
Q23.8281 48.0938 27.9688 50.7031
Q32.125 53.3281 38.0938 53.3281
Q40.2812 53.3281 42.7031 52.9844
Q45.125 52.6406 47.7969 52" id="DejaVuSerif-72"/>
      <path d="
M43.0156 63.7188
L38.2812 63.7188
Q38.2344 67.3906 36.2031 69.2812
Q34.1875 71.1875 30.3281 71.1875
Q25.2969 71.1875 23.2344 68.4219
Q21.1875 65.6719 21.1875 58.5938
L21.1875 51.9062
L35.6875 51.9062
L35.6875 46.6875
L21.1875 46.6875
L21.1875 5.17188
L32.7188 5.17188
L32.7188 0
L3.60938 0
L3.60938 5.17188
L12.2031 5.17188
L12.2031 46.6875
L3.60938 46.6875
L3.60938 51.9062
L12.2031 51.9062
L12.2031 58.4062
Q12.2031 67.0938 16.7188 71.5312
Q21.2344 75.9844 29.9844 75.9844
Q33.25 75.9844 36.5156 75.3906
Q39.7969 74.8125 43.0156 73.5781
z
" id="DejaVuSerif-66"/>
      <path d="
M51.4219 15.5781
Q49.5156 7.28125 44.0938 2.92188
Q38.6719 -1.42188 30.0781 -1.42188
Q18.75 -1.42188 11.8594 6.07812
Q4.98438 13.5781 4.98438 25.9844
Q4.98438 38.4219 11.8594 45.875
Q18.75 53.3281 30.0781 53.3281
Q35.0156 53.3281 39.8906 52.1719
Q44.7812 51.0312 49.7031 48.6875
L49.7031 35.4062
L44.4844 35.4062
Q43.4531 42.2344 40.0156 45.3594
Q36.5781 48.4844 30.1719 48.4844
Q22.9062 48.4844 19.1875 42.8438
Q15.4844 37.2031 15.4844 25.9844
Q15.4844 14.75 19.1719 9.07812
Q22.8594 3.42188 30.1719 3.42188
Q35.9844 3.42188 39.4531 6.4375
Q42.9219 9.46875 44.1875 15.5781
z
" id="DejaVuSerif-63"/>
      <path d="
M11.5312 5.17188
L11.5312 70.7969
L2.875 70.7969
L2.875 75.9844
L20.5156 75.9844
L20.5156 43.7969
Q23.1406 48.6875 27.2188 51
Q31.2969 53.3281 37.3125 53.3281
Q46.875 53.3281 52.9219 45.75
Q58.9844 38.1875 58.9844 25.9844
Q58.9844 13.7656 52.9219 6.17188
Q46.875 -1.42188 37.3125 -1.42188
Q31.2969 -1.42188 27.2188 0.890625
Q23.1406 3.21875 20.5156 8.10938
L20.5156 0
L2.875 0
L2.875 5.17188
z

M20.5156 23.3906
Q20.5156 14.0156 24.0938 9.10938
Q27.6875 4.20312 34.5156 4.20312
Q41.4062 4.20312 44.9375 9.71875
Q48.4844 15.2344 48.4844 25.9844
Q48.4844 36.7656 44.9375 42.2344
Q41.4062 47.7031 34.5156 47.7031
Q27.6875 47.7031 24.0938 42.7656
Q20.5156 37.8438 20.5156 28.5156
z
" id="DejaVuSerif-62"/>
      <path d="
M4.10938 0
L4.10938 5.17188
L12.2031 5.17188
L12.2031 46.6875
L3.60938 46.6875
L3.60938 51.9062
L21.1875 51.9062
L21.1875 42.6719
Q23.6875 47.9531 27.6562 50.6406
Q31.6406 53.3281 36.9219 53.3281
Q45.5156 53.3281 49.5625 48.3906
Q53.6094 43.4531 53.6094 33.0156
L53.6094 5.17188
L61.625 5.17188
L61.625 0
L36.8125 0
L36.8125 5.17188
L44.5781 5.17188
L44.5781 30.1719
Q44.5781 39.7031 42.2344 43.2344
Q39.8906 46.7812 33.9844 46.7812
Q27.7344 46.7812 24.4531 42.2031
Q21.1875 37.6406 21.1875 28.9062
L21.1875 5.17188
L29 5.17188
L29 0
z
" id="DejaVuSerif-6e"/>
      <path d="
M51.8125 41.7969
Q54.3906 47.5156 58.4219 50.4219
Q62.4531 53.3281 67.8281 53.3281
Q75.9844 53.3281 79.9844 48.2656
Q83.9844 43.2188 83.9844 33.0156
L83.9844 5.17188
L92.0938 5.17188
L92.0938 0
L67.1875 0
L67.1875 5.17188
L75 5.17188
L75 31.9844
Q75 39.9375 72.6562 43.3125
Q70.3125 46.6875 64.8906 46.6875
Q58.8906 46.6875 55.7344 42.1406
Q52.5938 37.5938 52.5938 28.9062
L52.5938 5.17188
L60.4062 5.17188
L60.4062 0
L35.7969 0
L35.7969 5.17188
L43.6094 5.17188
L43.6094 32.3281
Q43.6094 40.0938 41.2656 43.3906
Q38.9219 46.6875 33.5 46.6875
Q27.4844 46.6875 24.3281 42.1406
Q21.1875 37.5938 21.1875 28.9062
L21.1875 5.17188
L29 5.17188
L29 0
L4.10938 0
L4.10938 5.17188
L12.2031 5.17188
L12.2031 46.7812
L3.60938 46.7812
L3.60938 51.9062
L21.1875 51.9062
L21.1875 42.6719
Q23.6875 47.8594 27.5312 50.5938
Q31.3906 53.3281 36.2812 53.3281
Q42.3281 53.3281 46.375 50.3125
Q50.4375 47.3125 51.8125 41.7969" id="DejaVuSerif-6d"/>
      <path d="
M30.0781 3.42188
Q37.3125 3.42188 40.9844 9.125
Q44.6719 14.8438 44.6719 25.9844
Q44.6719 37.1094 40.9844 42.7969
Q37.3125 48.4844 30.0781 48.4844
Q22.8594 48.4844 19.1719 42.7969
Q15.4844 37.1094 15.4844 25.9844
Q15.4844 14.8438 19.1875 9.125
Q22.9062 3.42188 30.0781 3.42188
M30.0781 -1.42188
Q18.75 -1.42188 11.8594 6.07812
Q4.98438 13.5781 4.98438 25.9844
Q4.98438 38.375 11.8438 45.8438
Q18.7031 53.3281 30.0781 53.3281
Q41.4531 53.3281 48.3125 45.8438
Q55.1719 38.375 55.1719 25.9844
Q55.1719 13.5781 48.3125 6.07812
Q41.4531 -1.42188 30.0781 -1.42188" id="DejaVuSerif-6f"/>
      <path id="DejaVuSerif-20"/>
      <path d="
M5.60938 2.875
L5.60938 14.9844
L10.7969 14.9844
Q10.9844 9.1875 14.4219 6.29688
Q17.875 3.42188 24.6094 3.42188
Q30.6719 3.42188 33.8438 5.6875
Q37.0156 7.95312 37.0156 12.3125
Q37.0156 15.7188 34.6875 17.8125
Q32.375 19.9219 24.9062 22.3125
L18.4062 24.5156
Q11.7188 26.6562 8.71875 29.875
Q5.71875 33.1094 5.71875 38.0938
Q5.71875 45.2188 10.9375 49.2656
Q16.1562 53.3281 25.3906 53.3281
Q29.5 53.3281 34.0312 52.25
Q38.5781 51.1719 43.4062 49.125
L43.4062 37.7969
L38.2344 37.7969
Q38.0312 42.8281 34.7031 45.6562
Q31.3906 48.4844 25.6875 48.4844
Q20.0156 48.4844 17.1094 46.4844
Q14.2031 44.4844 14.2031 40.4844
Q14.2031 37.2031 16.4062 35.2188
Q18.6094 33.25 25.2031 31.2031
L32.3281 29
Q39.7031 26.7031 42.9375 23.2656
Q46.1875 19.8281 46.1875 14.4062
Q46.1875 7.03125 40.5469 2.79688
Q34.9062 -1.42188 25 -1.42188
Q19.9688 -1.42188 15.1875 -0.34375
Q10.4062 0.734375 5.60938 2.875" id="DejaVuSerif-73"/>
     </defs>
     <g transform="translate(156.034685059 207.7904375)scale(0.1 -0.1)">
      <use xlink:href="#DejaVuSerif-6e"/>
      <use x="64.404296875" xlink:href="#DejaVuSerif-75"/>
      <use x="128.80859375" xlink:href="#DejaVuSerif-6d"/>
      <use x="223.6328125" xlink:href="#DejaVuSerif-62"/>
      <use x="287.646484375" xlink:href="#DejaVuSerif-65"/>
      <use x="346.826171875" xlink:href="#DejaVuSerif-72"/>
      <use x="394.62890625" xlink:href="#DejaVuSerif-20"/>
      <use x="426.416015625" xlink:href="#DejaVuSerif-6f"/>
      <use x="486.62109375" xlink:href="#DejaVuSerif-66"/>
      <use x="523.6328125" xlink:href="#DejaVuSerif-20"/>
      <use x="555.419921875" xlink:href="#DejaVuSerif-63"/>
      <use x="611.42578125" xlink:href="#DejaVuSerif-6f"/>
      <use x="671.630859375" xlink:href="#DejaVuSerif-72"/>
      <use x="719.43359375" xlink:href="#DejaVuSerif-65"/>
      <use x="778.61328125" xlink:href="#DejaVuSerif-73"/>
     </g>
    </g>
   </g>
   <g id="matplotlib.axis_2">
    <g id="ytick_1">
     <g id="line2d_50">
      <defs>
       <path d="
M0 0
L4 0" id="m728421d6d4" style="stroke:#000000;stroke-width:0.5;"/>
      </defs>
      <g>
       <use style="stroke:#000000;stroke-width:0.5;" x="53.955" xlink:href="#m728421d6d4" y="179.892"/>
      </g>
     </g>
     <g id="line2d_51">
      <defs>
       <path d="
M0 0
L-4 0" id="mcb0005524f" style="stroke:#000000;stroke-width:0.5;"/>
      </defs>
      <g>
       <use style="stroke:#000000;stroke-width:0.5;" x="340.594057617" xlink:href="#mcb0005524f" y="179.892"/>
      </g>
     </g>
     <g id="text_5">
      <!-- 3000 -->
      <defs>
       <path d="
M9.71875 69.8281
Q15.4375 71.9688 20.6719 73.0938
Q25.9219 74.2188 30.5156 74.2188
Q41.2188 74.2188 47.2188 69.5938
Q53.2188 64.9844 53.2188 56.7812
Q53.2188 50.2031 49.0625 45.7812
Q44.9219 41.3594 37.3125 39.7969
Q46.2969 38.5312 51.25 33.2812
Q56.2031 28.0312 56.2031 19.6719
Q56.2031 9.46875 49.3438 4.01562
Q42.4844 -1.42188 29.5938 -1.42188
Q23.875 -1.42188 18.4219 -0.1875
Q12.9844 1.03125 7.625 3.51562
L7.625 17.6719
L13.0938 17.6719
Q13.5781 10.6406 17.8281 7.03125
Q22.0781 3.42188 29.7812 3.42188
Q37.25 3.42188 41.5781 7.73438
Q45.9062 12.0625 45.9062 19.5781
Q45.9062 28.1719 41.4531 32.5938
Q37.0156 37.0156 28.4219 37.0156
L23.7812 37.0156
L23.7812 42
L26.2188 42
Q34.7656 42 39.0312 45.5312
Q43.3125 49.0781 43.3125 56.2031
Q43.3125 62.5938 39.7969 65.9844
Q36.2812 69.3906 29.6875 69.3906
Q23.0938 69.3906 19.4531 66.2656
Q15.8281 63.1406 15.1875 56.9844
L9.71875 56.9844
z
" id="DejaVuSerif-33"/>
      </defs>
      <g transform="translate(25.9315625 182.651375)scale(0.1 -0.1)">
       <use xlink:href="#DejaVuSerif-33"/>
       <use x="63.623046875" xlink:href="#DejaVuSerif-30"/>
       <use x="127.24609375" xlink:href="#DejaVuSerif-30"/>
       <use x="190.869140625" xlink:href="#DejaVuSerif-30"/>
      </g>
     </g>
    </g>
    <g id="ytick_2">
     <g id="line2d_52">
      <g>
       <use style="stroke:#000000;stroke-width:0.5;" x="53.955" xlink:href="#m728421d6d4" y="154.271333333"/>
      </g>
     </g>
     <g id="line2d_53">
      <g>
       <use style="stroke:#000000;stroke-width:0.5;" x="340.594057617" xlink:href="#mcb0005524f" y="154.271333333"/>
      </g>
     </g>
     <g id="text_6">
      <!-- 3500 -->
      <defs>
       <path d="
M50.2969 72.9062
L50.2969 64.8906
L16.8906 64.8906
L16.8906 44
Q19.4375 45.75 22.8281 46.625
Q26.2188 47.5156 30.4219 47.5156
Q42.2344 47.5156 49.0625 40.9688
Q55.9062 34.4219 55.9062 23.0938
Q55.9062 11.5312 49 5.04688
Q42.0938 -1.42188 29.5938 -1.42188
Q24.5625 -1.42188 19.2812 -0.1875
Q14.0156 1.03125 8.5 3.51562
L8.5 17.6719
L14.0156 17.6719
Q14.4531 10.75 18.4219 7.07812
Q22.4062 3.42188 29.5938 3.42188
Q37.3125 3.42188 41.4531 8.5
Q45.6094 13.5781 45.6094 23.0938
Q45.6094 32.5625 41.4844 37.6094
Q37.3594 42.6719 29.5938 42.6719
Q25.2031 42.6719 21.8438 41.1094
Q18.5 39.5469 15.9219 36.2812
L11.7188 36.2812
L11.7188 72.9062
z
" id="DejaVuSerif-35"/>
      </defs>
      <g transform="translate(25.9315625 157.030708333)scale(0.1 -0.1)">
       <use xlink:href="#DejaVuSerif-33"/>
       <use x="63.623046875" xlink:href="#DejaVuSerif-35"/>
       <use x="127.24609375" xlink:href="#DejaVuSerif-30"/>
       <use x="190.869140625" xlink:href="#DejaVuSerif-30"/>
      </g>
     </g>
    </g>
    <g id="ytick_3">
     <g id="line2d_54">
      <g>
       <use style="stroke:#000000;stroke-width:0.5;" x="53.955" xlink:href="#m728421d6d4" y="128.650666667"/>
      </g>
     </g>
     <g id="line2d_55">
      <g>
       <use style="stroke:#000000;stroke-width:0.5;" x="340.594057617" xlink:href="#mcb0005524f" y="128.650666667"/>
      </g>
     </g>
     <g id="text_7">
      <!-- 4000 -->
      <defs>
       <path d="
M34.9062 24.7031
L34.9062 63.4844
L10.0156 24.7031
z

M56.3906 0
L23.1875 0
L23.1875 5.17188
L34.9062 5.17188
L34.9062 19.4844
L3.07812 19.4844
L3.07812 24.8125
L35.0156 74.2188
L44.6719 74.2188
L44.6719 24.7031
L58.5938 24.7031
L58.5938 19.4844
L44.6719 19.4844
L44.6719 5.17188
L56.3906 5.17188
z
" id="DejaVuSerif-34"/>
      </defs>
      <g transform="translate(25.476875 131.410041667)scale(0.1 -0.1)">
       <use xlink:href="#DejaVuSerif-34"/>
       <use x="63.623046875" xlink:href="#DejaVuSerif-30"/>
       <use x="127.24609375" xlink:href="#DejaVuSerif-30"/>
       <use x="190.869140625" xlink:href="#DejaVuSerif-30"/>
      </g>
     </g>
    </g>
    <g id="ytick_4">
     <g id="line2d_56">
      <g>
       <use style="stroke:#000000;stroke-width:0.5;" x="53.955" xlink:href="#m728421d6d4" y="103.03"/>
      </g>
     </g>
     <g id="line2d_57">
      <g>
       <use style="stroke:#000000;stroke-width:0.5;" x="340.594057617" xlink:href="#mcb0005524f" y="103.03"/>
      </g>
     </g>
     <g id="text_8">
      <!-- 4500 -->
      <g transform="translate(25.476875 105.789375)scale(0.1 -0.1)">
       <use xlink:href="#DejaVuSerif-34"/>
       <use x="63.623046875" xlink:href="#DejaVuSerif-35"/>
       <use x="127.24609375" xlink:href="#DejaVuSerif-30"/>
       <use x="190.869140625" xlink:href="#DejaVuSerif-30"/>
      </g>
     </g>
    </g>
    <g id="ytick_5">
     <g id="line2d_58">
      <g>
       <use style="stroke:#000000;stroke-width:0.5;" x="53.955" xlink:href="#m728421d6d4" y="77.4093333333"/>
      </g>
     </g>
     <g id="line2d_59">
      <g>
       <use style="stroke:#000000;stroke-width:0.5;" x="340.594057617" xlink:href="#mcb0005524f" y="77.4093333333"/>
      </g>
     </g>
     <g id="text_9">
      <!-- 5000 -->
      <g transform="translate(26.0190625 80.1687083333)scale(0.1 -0.1)">
       <use xlink:href="#DejaVuSerif-35"/>
       <use x="63.623046875" xlink:href="#DejaVuSerif-30"/>
       <use x="127.24609375" xlink:href="#DejaVuSerif-30"/>
       <use x="190.869140625" xlink:href="#DejaVuSerif-30"/>
      </g>
     </g>
    </g>
    <g id="ytick_6">
     <g id="line2d_60">
      <g>
       <use style="stroke:#000000;stroke-width:0.5;" x="53.955" xlink:href="#m728421d6d4" y="51.7886666667"/>
      </g>
     </g>
     <g id="line2d_61">
      <g>
       <use style="stroke:#000000;stroke-width:0.5;" x="340.594057617" xlink:href="#mcb0005524f" y="51.7886666667"/>
      </g>
     </g>
     <g id="text_10">
      <!-- 5500 -->
      <g transform="translate(26.0190625 54.5480416667)scale(0.1 -0.1)">
       <use xlink:href="#DejaVuSerif-35"/>
       <use x="63.623046875" xlink:href="#DejaVuSerif-35"/>
       <use x="127.24609375" xlink:href="#DejaVuSerif-30"/>
       <use x="190.869140625" xlink:href="#DejaVuSerif-30"/>
      </g>
     </g>
    </g>
    <g id="ytick_7">
     <g id="line2d_62">
      <g>
       <use style="stroke:#000000;stroke-width:0.5;" x="53.955" xlink:href="#m728421d6d4" y="26.168"/>
      </g>
     </g>
     <g id="line2d_63">
      <g>
       <use style="stroke:#000000;stroke-width:0.5;" x="340.594057617" xlink:href="#mcb0005524f" y="26.168"/>
      </g>
     </g>
     <g id="text_11">
      <!-- 6000 -->
      <defs>
       <path d="
M32.7188 3.42188
Q39.5938 3.42188 43.2969 8.46875
Q47.0156 13.5312 47.0156 23
Q47.0156 32.4688 43.2969 37.5156
Q39.5938 42.5781 32.7188 42.5781
Q25.7344 42.5781 22.0625 37.6875
Q18.4062 32.8125 18.4062 23.5781
Q18.4062 13.875 22.1094 8.64062
Q25.8281 3.42188 32.7188 3.42188
M16.7969 40.1406
Q20.125 43.7969 24.3125 45.5938
Q28.5156 47.4062 33.7969 47.4062
Q44.6719 47.4062 51 40.8594
Q57.3281 34.3281 57.3281 23
Q57.3281 11.9219 50.5156 5.25
Q43.7031 -1.42188 32.3281 -1.42188
Q19.9688 -1.42188 13.3281 7.78125
Q6.6875 17 6.6875 34.0781
Q6.6875 53.2188 14.5469 63.7188
Q22.4062 74.2188 36.7188 74.2188
Q40.5781 74.2188 44.8281 73.4844
Q49.0781 72.75 53.5156 71.2969
L53.5156 59.2812
L48 59.2812
Q47.4062 64.2031 44.2344 66.7969
Q41.0625 69.3906 35.6875 69.3906
Q26.2188 69.3906 21.5781 62.2031
Q16.9375 55.0312 16.7969 40.1406" id="DejaVuSerif-36"/>
      </defs>
      <g transform="translate(25.8378125 28.927375)scale(0.1 -0.1)">
       <use xlink:href="#DejaVuSerif-36"/>
       <use x="63.623046875" xlink:href="#DejaVuSerif-30"/>
       <use x="127.24609375" xlink:href="#DejaVuSerif-30"/>
       <use x="190.869140625" xlink:href="#DejaVuSerif-30"/>
      </g>
     </g>
    </g>
    <g id="text_12">
     <!-- time [s] -->
     <defs>
      <path d="
M30.4219 75.9844
L30.4219 -13.1875
L7.71875 -13.1875
L7.71875 -8.01562
L21.0938 -8.01562
L21.0938 70.7969
L7.71875 70.7969
L7.71875 75.9844
z
" id="DejaVuSerif-5d"/>
      <path d="
M10.7969 46.6875
L2.875 46.6875
L2.875 51.9062
L10.7969 51.9062
L10.7969 68.0156
L19.8281 68.0156
L19.8281 51.9062
L36.7188 51.9062
L36.7188 46.6875
L19.8281 46.6875
L19.8281 13.7188
Q19.8281 7.125 21.0938 5.26562
Q22.3594 3.42188 25.7812 3.42188
Q29.2969 3.42188 30.9062 5.48438
Q32.5156 7.5625 32.625 12.2031
L39.4062 12.2031
Q39.0156 5.125 35.5469 1.84375
Q32.0781 -1.42188 25 -1.42188
Q17.2344 -1.42188 14.0156 2.01562
Q10.7969 5.46875 10.7969 13.7188
z
" id="DejaVuSerif-74"/>
      <path d="
M9.71875 68.0156
Q9.71875 70.2656 11.3438 71.9219
Q12.9844 73.5781 15.2812 73.5781
Q17.5312 73.5781 19.1562 71.9219
Q20.7969 70.2656 20.7969 68.0156
Q20.7969 65.7188 19.1875 64.1094
Q17.5781 62.5 15.2812 62.5
Q12.9844 62.5 11.3438 64.1094
Q9.71875 65.7188 9.71875 68.0156
M21.1875 5.17188
L29.6875 5.17188
L29.6875 0
L3.60938 0
L3.60938 5.17188
L12.2031 5.17188
L12.2031 46.6875
L3.60938 46.6875
L3.60938 51.9062
L21.1875 51.9062
z
" id="DejaVuSerif-69"/>
      <path d="
M8.59375 75.9844
L31.2969 75.9844
L31.2969 70.7969
L17.9219 70.7969
L17.9219 -8.01562
L31.2969 -8.01562
L31.2969 -13.1875
L8.59375 -13.1875
z
" id="DejaVuSerif-5b"/>
     </defs>
     <g transform="translate(18.3971875 121.9659375)rotate(-90.0)scale(0.1 -0.1)">
      <use xlink:href="#DejaVuSerif-74"/>
      <use x="40.185546875" xlink:href="#DejaVuSerif-69"/>
      <use x="72.16796875" xlink:href="#DejaVuSerif-6d"/>
      <use x="166.9921875" xlink:href="#DejaVuSerif-65"/>
      <use x="226.171875" xlink:href="#DejaVuSerif-20"/>
      <use x="257.958984375" xlink:href="#DejaVuSerif-5b"/>
      <use x="296.97265625" xlink:href="#DejaVuSerif-73"/>
      <use x="348.291015625" xlink:href="#DejaVuSerif-5d"/>
     </g>
    </g>
   </g>
   <g id="text_13">
    <!-- Weak scaling ($\mathrm{n_x=1000 \cdot n_{cores}}$; $\mathrm{n_y=100}$) -->
    <defs>
     <path d="
M8.40625 25
Q8.40625 26.4219 9.125 27.6875
Q9.85938 28.9531 11.1562 29.7344
Q12.4531 30.5156 13.9219 30.5156
Q15.3281 30.5156 16.625 29.7344
Q17.9219 28.9531 18.6562 27.6875
Q19.3906 26.4219 19.3906 25
Q19.3906 22.75 17.7969 21.1094
Q16.2188 19.4844 13.9219 19.4844
Q11.6719 19.4844 10.0312 21.1094
Q8.40625 22.75 8.40625 25" id="Cmsy10-a2"/>
     <path d="
M7.07812 -15.5781
L7.07812 -10.7969
Q14.5938 -5.60938 17.8906 3.78125
Q21.1875 13.1875 21.1875 30.1719
Q21.1875 47.2188 17.8906 56.6094
Q14.5938 66.0156 7.07812 71.1875
L7.07812 75.9844
Q19 70.6562 25.0469 59.1094
Q31.1094 47.5625 31.1094 30.1719
Q31.1094 12.8438 25.0469 1.29688
Q19 -10.25 7.07812 -15.5781" id="DejaVuSerif-29"/>
     <path d="
M52.4844 46.6875
L52.4844 1.125
Q52.4844 -10.0625 46.3281 -16.1406
Q40.1875 -22.2188 28.8125 -22.2188
Q23.6875 -22.2188 19 -21.2812
Q14.3125 -20.3594 10.0156 -18.5
L10.0156 -7.625
L14.7031 -7.625
Q15.5781 -12.7031 18.8438 -15.0469
Q22.125 -17.3906 28.2188 -17.3906
Q36.1406 -17.3906 39.8125 -12.9219
Q43.5 -8.45312 43.5 1.125
L43.5 8.10938
Q40.875 3.21875 36.7969 0.890625
Q32.7188 -1.42188 26.7031 -1.42188
Q17.1406 -1.42188 11.0625 6.17188
Q4.98438 13.7656 4.98438 25.9844
Q4.98438 38.1875 11.0312 45.75
Q17.0938 53.3281 26.7031 53.3281
Q32.7188 53.3281 36.7969 51
Q40.875 48.6875 43.5 43.7969
L43.5 51.9062
L61.0781 51.9062
L61.0781 46.6875
z

M43.5 28.5156
Q43.5 37.8438 39.9062 42.7656
Q36.3281 47.7031 29.5 47.7031
Q22.5625 47.7031 19.0156 42.2344
Q15.4844 36.7656 15.4844 25.9844
Q15.4844 15.2344 19.0156 9.71875
Q22.5625 4.20312 29.5 4.20312
Q36.3281 4.20312 39.9062 9.10938
Q43.5 14.0156 43.5 23.3906
z
" id="DejaVuSerif-67"/>
     <path d="
M25 -2.20312
Q12.75 -2.20312 8.32812 7.875
Q3.90625 17.9688 3.90625 31.8906
Q3.90625 40.5781 5.48438 48.2344
Q7.07812 55.9062 11.7812 61.25
Q16.5 66.6094 25 66.6094
Q31.5938 66.6094 35.7812 63.375
Q39.9844 60.1562 42.1875 55.0469
Q44.3906 49.9531 45.1875 44.1094
Q46 38.2812 46 31.8906
Q46 23.2969 44.4062 15.7969
Q42.8281 8.29688 38.1875 3.04688
Q33.5469 -2.20312 25 -2.20312
M25 0.390625
Q30.5625 0.390625 33.2969 6.09375
Q36.0312 11.8125 36.6719 18.75
Q37.3125 25.6875 37.3125 33.5
Q37.3125 41.0156 36.6719 47.3594
Q36.0312 53.7188 33.3125 58.8594
Q30.6094 64.0156 25 64.0156
Q19.3438 64.0156 16.6094 58.8281
Q13.875 53.6562 13.2344 47.3281
Q12.5938 41.0156 12.5938 33.5
Q12.5938 27.9375 12.8594 23
Q13.1406 18.0625 14.3125 12.8125
Q15.4844 7.5625 18.0938 3.96875
Q20.7031 0.390625 25 0.390625" id="Cmr10-30"/>
     <path d="
M39.7969 16.3125
L39.7969 27.2969
L28.2188 27.2969
Q21.5312 27.2969 18.25 24.4062
Q14.9844 21.5312 14.9844 15.5781
Q14.9844 10.1562 18.2969 6.98438
Q21.625 3.8125 27.2969 3.8125
Q32.9062 3.8125 36.3438 7.28125
Q39.7969 10.75 39.7969 16.3125
M48.7812 32.4219
L48.7812 5.17188
L56.7812 5.17188
L56.7812 0
L39.7969 0
L39.7969 5.60938
Q36.8125 2 32.9062 0.28125
Q29 -1.42188 23.7812 -1.42188
Q15.1406 -1.42188 10.0625 3.17188
Q4.98438 7.76562 4.98438 15.5781
Q4.98438 23.6406 10.7969 28.0781
Q16.6094 32.5156 27.2031 32.5156
L39.7969 32.5156
L39.7969 36.0781
Q39.7969 42 36.2031 45.2344
Q32.625 48.4844 26.125 48.4844
Q20.75 48.4844 17.5781 46.0469
Q14.4062 43.6094 13.625 38.8125
L8.98438 38.8125
L8.98438 49.3125
Q13.6719 51.3125 18.0938 52.3125
Q22.5156 53.3281 26.7031 53.3281
Q37.5 53.3281 43.1406 47.9688
Q48.7812 42.625 48.7812 32.4219" id="DejaVuSerif-61"/>
     <path d="
M6.89062 -16.4062
Q8.79688 -17.9219 11.0781 -17.9219
Q17.3906 -17.9219 21.3906 -8.40625
L24.8125 0
L9.8125 36.7188
Q8.89062 38.5781 6.98438 39.0781
Q5.07812 39.5938 1.90625 39.5938
L1.90625 43.1094
L22.9062 43.1094
L22.9062 39.5938
Q17.3906 39.5938 17.3906 37.2031
Q17.3906 36.8125 17.4844 36.625
L28.6094 9.28125
L38.625 33.8906
Q38.9219 34.6719 38.9219 35.5938
Q38.9219 36.8125 38.25 37.7188
Q37.5938 38.625 36.5469 39.1094
Q35.5 39.5938 34.1875 39.5938
L34.1875 43.1094
L50.7812 43.1094
L50.7812 39.5938
Q47.7031 39.5938 45.375 38.1719
Q43.0625 36.7656 41.7969 33.9844
L24.5156 -8.40625
Q23.1406 -11.625 21.3125 -14.3281
Q19.4844 -17.0469 16.8438 -18.7812
Q14.2031 -20.5156 11.0781 -20.5156
Q7.42188 -20.5156 4.65625 -18.0938
Q1.90625 -15.6719 1.90625 -12.1094
Q1.90625 -10.25 3.17188 -8.98438
Q4.4375 -7.71875 6.29688 -7.71875
Q7.5625 -7.71875 8.5625 -8.28125
Q9.57812 -8.84375 10.125 -9.8125
Q10.6875 -10.7969 10.6875 -12.1094
Q10.6875 -13.7188 9.60938 -14.9844
Q8.54688 -16.2656 6.89062 -16.4062" id="Cmr10-79"/>
     <path d="
M76.2188 0
L68.2188 0
L51.5156 59.2812
L34.8125 0
L26.8125 0
L7.71875 67.6719
L0.484375 67.6719
L0.484375 72.9062
L27.0938 72.9062
L27.0938 67.6719
L18.0156 67.6719
L33.2031 13.8125
L49.8125 72.9062
L57.7188 72.9062
L74.6094 13.1875
L89.8906 67.6719
L81.5 67.6719
L81.5 72.9062
L102.484 72.9062
L102.484 67.6719
L95.3125 67.6719
z
" id="DejaVuSerif-57"/>
     <path d="
M7.51562 13.2812
Q6.6875 13.2812 6.14062 13.9062
Q5.60938 14.5469 5.60938 15.2812
Q5.60938 16.1094 6.14062 16.6875
Q6.6875 17.2812 7.51562 17.2812
L70.3125 17.2812
Q71.0469 17.2812 71.5781 16.6875
Q72.125 16.1094 72.125 15.2812
Q72.125 14.5469 71.5781 13.9062
Q71.0469 13.2812 70.3125 13.2812
z

M7.51562 32.7188
Q6.6875 32.7188 6.14062 33.2969
Q5.60938 33.8906 5.60938 34.7188
Q5.60938 35.4531 6.14062 36.0781
Q6.6875 36.7188 7.51562 36.7188
L70.3125 36.7188
Q71.0469 36.7188 71.5781 36.0781
Q72.125 35.4531 72.125 34.7188
Q72.125 33.8906 71.5781 33.2969
Q71.0469 32.7188 70.3125 32.7188
z
" id="Cmr10-3d"/>
     <path d="
M2.98438 0
L2.98438 3.51562
Q6.39062 3.51562 8.59375 4.04688
Q10.7969 4.59375 10.7969 6.6875
L10.7969 33.9844
Q10.7969 36.6719 9.98438 37.8594
Q9.1875 39.0625 7.67188 39.3281
Q6.15625 39.5938 2.98438 39.5938
L2.98438 43.1094
L17.4844 44.1875
L17.4844 34.4219
Q19.4844 38.7188 23.4062 41.4531
Q27.3438 44.1875 31.9844 44.1875
Q38.9219 44.1875 42.4062 40.8594
Q45.9062 37.5469 45.9062 30.7188
L45.9062 6.6875
Q45.9062 4.59375 48.0938 4.04688
Q50.2969 3.51562 53.7188 3.51562
L53.7188 0
L30.8125 0
L30.8125 3.51562
Q34.2344 3.51562 36.4219 4.04688
Q38.625 4.59375 38.625 6.6875
L38.625 30.4219
Q38.625 35.2969 37.2031 38.4531
Q35.7969 41.6094 31.3906 41.6094
Q25.5938 41.6094 21.8438 36.9688
Q18.1094 32.3281 18.1094 26.4219
L18.1094 6.6875
Q18.1094 4.59375 20.3125 4.04688
Q22.5156 3.51562 25.875 3.51562
L25.875 0
z
" id="Cmr10-6e"/>
     <path d="
M25 -1.125
Q19 -1.125 13.8594 1.92188
Q8.73438 4.98438 5.75 10.1094
Q2.78125 15.2344 2.78125 21.2969
Q2.78125 25.875 4.42188 30.125
Q6.0625 34.375 9.10938 37.7188
Q12.1562 41.0625 16.2031 42.9375
Q20.2656 44.8281 25 44.8281
Q31.1562 44.8281 36.2031 41.5781
Q41.2656 38.3281 44.1875 32.875
Q47.125 27.4375 47.125 21.2969
Q47.125 15.2812 44.1406 10.125
Q41.1562 4.98438 36.0469 1.92188
Q30.9531 -1.125 25 -1.125
M25 1.8125
Q33.0156 1.8125 35.6875 7.60938
Q38.375 13.4219 38.375 22.4062
Q38.375 27.4375 37.8438 30.7344
Q37.3125 34.0312 35.5 36.7188
Q34.375 38.375 32.6406 39.625
Q30.9062 40.875 28.9688 41.5312
Q27.0469 42.1875 25 42.1875
Q21.875 42.1875 19.0625 40.7656
Q16.2656 39.3594 14.4062 36.7188
Q12.5469 33.8906 12.0312 30.4844
Q11.5312 27.0938 11.5312 22.4062
Q11.5312 16.7969 12.5 12.3281
Q13.4844 7.85938 16.4375 4.82812
Q19.3906 1.8125 25 1.8125" id="Cmr10-6f"/>
     <path d="
M1.21875 0
L1.21875 3.51562
Q5.03125 3.51562 8.39062 5
Q11.7656 6.5 14.1094 9.42188
L23.1875 21
L11.375 36.375
Q9.625 38.5781 7.54688 39.0781
Q5.46875 39.5938 1.70312 39.5938
L1.70312 43.1094
L22.5156 43.1094
L22.5156 39.5938
Q21.1875 39.5938 20.0312 39
Q18.8906 38.4219 18.8906 37.3125
Q18.8906 36.9219 19.1875 36.375
L27.2031 25.9844
L33.2031 33.6875
Q34.4219 35.1562 34.4219 36.625
Q34.4219 37.8438 33.6094 38.7188
Q32.8125 39.5938 31.5 39.5938
L31.5 43.1094
L49.9062 43.1094
L49.9062 39.5938
Q46.0469 39.5938 42.6562 38.1094
Q39.2656 36.625 36.9219 33.6875
L29 23.5781
L41.7969 6.6875
Q43.7031 4.5 45.75 4
Q47.7969 3.51562 51.6094 3.51562
L51.6094 0
L30.8125 0
L30.8125 3.51562
Q32.0312 3.51562 33.1562 4.09375
Q34.2812 4.6875 34.2812 5.8125
Q34.2812 6.25 33.9844 6.6875
L25 18.6094
L17.8281 9.42188
Q16.7031 8.15625 16.7031 6.5
Q16.7031 5.28125 17.5312 4.39062
Q18.3594 3.51562 19.4844 3.51562
L19.4844 0
z
" id="Cmr10-78"/>
     <path d="
M9.28125 0
L9.28125 3.51562
Q21.7812 3.51562 21.7812 6.6875
L21.7812 59.1875
Q16.6094 56.6875 8.6875 56.6875
L8.6875 60.2031
Q20.9531 60.2031 27.2031 66.6094
L28.6094 66.6094
Q28.9531 66.6094 29.2656 66.3281
Q29.5938 66.0625 29.5938 65.7188
L29.5938 6.6875
Q29.5938 3.51562 42.0938 3.51562
L42.0938 0
z
" id="Cmr10-31"/>
     <path d="
M3.60938 -9.71875
Q8.20312 -6.34375 10.3438 -1.78125
Q12.5 2.78125 12.5 9.28125
L12.5 11.0781
L22.125 11.0781
Q21.7344 2.73438 18.1875 -3.25
Q14.6562 -9.23438 7.51562 -13.625
z

M10.5938 36.9219
Q10.5938 39.6562 12.4688 41.5312
Q14.3594 43.4062 17.0938 43.4062
Q19.8281 43.4062 21.7031 41.5
Q23.5781 39.5938 23.5781 36.9219
Q23.5781 34.1875 21.7031 32.2969
Q19.8281 30.4219 17.0938 30.4219
Q14.3594 30.4219 12.4688 32.2969
Q10.5938 34.1875 10.5938 36.9219" id="DejaVuSerif-3b"/>
     <path d="
M31.8906 -15.5781
Q20.0156 -10.25 13.9531 1.29688
Q7.90625 12.8438 7.90625 30.1719
Q7.90625 47.5625 13.9531 59.1094
Q20.0156 70.6562 31.8906 75.9844
L31.8906 71.1875
Q24.3594 66.0156 21.0938 56.6094
Q17.8281 47.2188 17.8281 30.1719
Q17.8281 13.1875 21.0938 3.78125
Q24.3594 -5.60938 31.8906 -10.7969
z
" id="DejaVuSerif-28"/>
     <path d="
M20.5156 5.17188
L29 5.17188
L29 0
L2.875 0
L2.875 5.17188
L11.5312 5.17188
L11.5312 70.7969
L2.875 70.7969
L2.875 75.9844
L20.5156 75.9844
z
" id="DejaVuSerif-6c"/>
     <path d="
M28.6094 0
L3.42188 0
L3.42188 5.17188
L11.5312 5.17188
L11.5312 70.7969
L2.875 70.7969
L2.875 75.9844
L20.5156 75.9844
L20.5156 26.5156
L42.3906 46.6875
L34.9062 46.6875
L34.9062 51.9062
L58.4062 51.9062
L58.4062 46.6875
L49.5156 46.6875
L34.0781 32.4219
L53.8125 5.17188
L61.2812 5.17188
L61.2812 0
L35.6875 0
L35.6875 5.17188
L43.1094 5.17188
L27.5938 26.5156
L20.5156 19.9219
L20.5156 5.17188
L28.6094 5.17188
z
" id="DejaVuSerif-6b"/>
     <path d="
M24.9062 -1.125
Q18.7969 -1.125 13.6875 2.07812
Q8.59375 5.28125 5.6875 10.625
Q2.78125 15.9688 2.78125 21.9219
Q2.78125 27.7812 5.4375 33.0469
Q8.10938 38.3281 12.8594 41.5781
Q17.625 44.8281 23.4844 44.8281
Q28.0781 44.8281 31.4688 43.2812
Q34.8594 41.75 37.0625 39.0156
Q39.2656 36.2812 40.375 32.5625
Q41.5 28.8594 41.5 24.4219
Q41.5 23.0938 40.4844 23.0938
L11.5312 23.0938
L11.5312 22.0156
Q11.5312 13.7188 14.875 7.76562
Q18.2188 1.8125 25.7812 1.8125
Q28.8594 1.8125 31.4688 3.17188
Q34.0781 4.54688 36 6.98438
Q37.9375 9.42188 38.625 12.2031
Q38.7188 12.5469 38.9844 12.8125
Q39.2656 13.0938 39.5938 13.0938
L40.4844 13.0938
Q41.5 13.0938 41.5 11.8125
Q40.0938 6.15625 35.4062 2.51562
Q30.7188 -1.125 24.9062 -1.125
M11.625 25.5938
L34.4219 25.5938
Q34.4219 29.3438 33.375 33.2031
Q32.3281 37.0625 29.875 39.625
Q27.4375 42.1875 23.4844 42.1875
Q17.8281 42.1875 14.7188 36.8906
Q11.625 31.5938 11.625 25.5938" id="Cmr10-65"/>
     <path d="
M3.32812 -0.296875
L3.32812 16.0156
Q3.32812 16.7969 4.20312 16.7969
L5.42188 16.7969
Q6 16.7969 6.20312 16.0156
Q8.98438 1.51562 19.6719 1.51562
Q24.4219 1.51562 27.6094 3.65625
Q30.8125 5.8125 30.8125 10.2969
Q30.8125 13.5312 28.3125 15.7969
Q25.8281 18.0625 22.4062 18.8906
L15.7188 20.2188
Q12.3594 20.9531 9.59375 22.4531
Q6.84375 23.9688 5.07812 26.4844
Q3.32812 29 3.32812 32.3281
Q3.32812 36.7188 5.64062 39.5156
Q7.95312 42.3281 11.6562 43.5781
Q15.375 44.8281 19.6719 44.8281
Q24.8125 44.8281 28.6094 42.0938
L31.5 44.5781
Q31.5 44.8281 31.9844 44.8281
L32.7188 44.8281
Q33.0156 44.8281 33.25 44.5469
Q33.5 44.2812 33.5 44
L33.5 30.9062
Q33.5 29.9844 32.7188 29.9844
L31.5 29.9844
Q30.6094 29.9844 30.6094 30.9062
Q30.6094 36.1406 27.7031 39.3125
Q24.8125 42.4844 19.5781 42.4844
Q15.0938 42.4844 11.7969 40.8125
Q8.5 39.1562 8.5 35.1094
Q8.5 32.3281 10.8594 30.5469
Q13.2344 28.7656 16.4062 27.9844
L23.1875 26.7031
Q26.6094 25.9219 29.5625 24.0625
Q32.5156 22.2188 34.25 19.375
Q35.9844 16.5469 35.9844 12.9844
Q35.9844 9.375 34.7344 6.70312
Q33.5 4.04688 31.2656 2.28125
Q29.0469 0.53125 26.0156 -0.296875
Q23 -1.125 19.6719 -1.125
Q13.4219 -1.125 8.98438 3.07812
L5.32812 -0.875
Q5.32812 -1.125 4.78125 -1.125
L4.20312 -1.125
Q3.32812 -1.125 3.32812 -0.296875" id="Cmr10-73"/>
     <path d="
M2.59375 0
L2.59375 3.51562
Q6 3.51562 8.20312 4.04688
Q10.4062 4.59375 10.4062 6.6875
L10.4062 33.9844
Q10.4062 36.6719 9.59375 37.8594
Q8.79688 39.0625 7.28125 39.3281
Q5.76562 39.5938 2.59375 39.5938
L2.59375 43.1094
L16.8906 44.1875
L16.8906 34.4219
Q18.5 38.7656 21.4844 41.4688
Q24.4688 44.1875 28.7188 44.1875
Q31.6875 44.1875 34.0312 42.4219
Q36.375 40.6719 36.375 37.7969
Q36.375 35.9844 35.0781 34.6406
Q33.7969 33.2969 31.8906 33.2969
Q30.0312 33.2969 28.7031 34.6094
Q27.3906 35.9375 27.3906 37.7969
Q27.3906 40.4844 29.2969 41.6094
L28.7188 41.6094
Q24.6562 41.6094 22.0938 38.6719
Q19.5312 35.75 18.4531 31.3906
Q17.3906 27.0469 17.3906 23.0938
L17.3906 6.6875
Q17.3906 3.51562 27.0938 3.51562
L27.0938 0
z
" id="Cmr10-72"/>
     <path d="
M24.9062 -1.125
Q18.8438 -1.125 13.9062 2.01562
Q8.98438 5.17188 6.15625 10.4219
Q3.32812 15.6719 3.32812 21.5781
Q3.32812 27.4844 6.125 32.9062
Q8.9375 38.3281 13.8906 41.5781
Q18.8438 44.8281 24.9062 44.8281
Q30.7656 44.8281 35.5625 42.5312
Q40.375 40.2344 40.375 35.0156
Q40.375 33.0625 38.9844 31.6094
Q37.5938 30.1719 35.5938 30.1719
Q33.5938 30.1719 32.2031 31.6094
Q30.8125 33.0625 30.8125 35.0156
Q30.8125 36.7656 31.9375 38.0625
Q33.0625 39.3594 34.7188 39.7031
Q31.25 41.8906 25 41.8906
Q20.2188 41.8906 17.2812 38.7188
Q14.3594 35.5469 13.1875 30.8594
Q12.0156 26.1719 12.0156 21.5781
Q12.0156 16.75 13.4531 12.2344
Q14.8906 7.71875 18.0938 4.76562
Q21.2969 1.8125 26.125 1.8125
Q30.8594 1.8125 34.1719 4.71875
Q37.5 7.625 38.7188 12.3125
Q38.7188 12.8906 39.5 12.8906
L40.7188 12.8906
Q41.0156 12.8906 41.25 12.625
Q41.5 12.3594 41.5 12.0156
L41.5 11.7188
Q39.9844 5.8125 35.4844 2.34375
Q31 -1.125 24.9062 -1.125" id="Cmr10-63"/>
    </defs>
    <g transform="translate(85.2545288086 21.168)scale(0.12 -0.12)">
     <use transform="translate(0.0 0.015625)" xlink:href="#DejaVuSerif-57"/>
     <use transform="translate(102.783203125 0.015625)" xlink:href="#DejaVuSerif-65"/>
     <use transform="translate(161.962890625 0.015625)" xlink:href="#DejaVuSerif-61"/>
     <use transform="translate(221.58203125 0.015625)" xlink:href="#DejaVuSerif-6b"/>
     <use transform="translate(282.177734375 0.015625)" xlink:href="#DejaVuSerif-20"/>
     <use transform="translate(313.96484375 0.015625)" xlink:href="#DejaVuSerif-73"/>
     <use transform="translate(365.283203125 0.015625)" xlink:href="#DejaVuSerif-63"/>
     <use transform="translate(421.2890625 0.015625)" xlink:href="#DejaVuSerif-61"/>
     <use transform="translate(480.908203125 0.015625)" xlink:href="#DejaVuSerif-6c"/>
     <use transform="translate(512.890625 0.015625)" xlink:href="#DejaVuSerif-69"/>
     <use transform="translate(544.873046875 0.015625)" xlink:href="#DejaVuSerif-6e"/>
     <use transform="translate(609.27734375 0.015625)" xlink:href="#DejaVuSerif-67"/>
     <use transform="translate(673.291015625 0.015625)" xlink:href="#DejaVuSerif-20"/>
     <use transform="translate(705.078125 0.015625)" xlink:href="#DejaVuSerif-28"/>
     <use transform="translate(744.091796875 0.015625)" xlink:href="#Cmr10-6e"/>
     <use transform="translate(799.609375 -26.084375)scale(0.7)" xlink:href="#Cmr10-78"/>
     <use transform="translate(868.955078125 0.015625)" xlink:href="#Cmr10-3d"/>
     <use transform="translate(952.115234375 0.015625)" xlink:href="#Cmr10-31"/>
     <use transform="translate(1002.11523438 0.015625)" xlink:href="#Cmr10-30"/>
     <use transform="translate(1052.11523438 0.015625)" xlink:href="#Cmr10-30"/>
     <use transform="translate(1102.11523438 0.015625)" xlink:href="#Cmr10-30"/>
     <use transform="translate(1168.77539062 0.015625)" xlink:href="#Cmsy10-a2"/>
     <use transform="translate(1196.41992188 0.015625)" xlink:href="#Cmr10-6e"/>
     <use transform="translate(1251.9375 -26.084375)scale(0.7)" xlink:href="#Cmr10-63"/>
     <use transform="translate(1283.00683594 -26.084375)scale(0.7)" xlink:href="#Cmr10-6f"/>
     <use transform="translate(1318.00683594 -26.084375)scale(0.7)" xlink:href="#Cmr10-72"/>
     <use transform="translate(1345.38476562 -26.084375)scale(0.7)" xlink:href="#Cmr10-65"/>
     <use transform="translate(1376.45410156 -26.084375)scale(0.7)" xlink:href="#Cmr10-73"/>
     <use transform="translate(1404.03710938 0.015625)" xlink:href="#DejaVuSerif-3b"/>
     <use transform="translate(1437.72851562 0.015625)" xlink:href="#DejaVuSerif-20"/>
     <use transform="translate(1469.515625 0.015625)" xlink:href="#Cmr10-6e"/>
     <use transform="translate(1525.03320312 -26.084375)scale(0.7)" xlink:href="#Cmr10-79"/>
     <use transform="translate(1594.37890625 0.015625)" xlink:href="#Cmr10-3d"/>
     <use transform="translate(1677.5390625 0.015625)" xlink:href="#Cmr10-31"/>
     <use transform="translate(1727.5390625 0.015625)" xlink:href="#Cmr10-30"/>
     <use transform="translate(1777.5390625 0.015625)" xlink:href="#Cmr10-30"/>
     <use transform="translate(1827.5390625 0.015625)" xlink:href="#DejaVuSerif-29"/>
    </g>
   </g>
  </g>
  <g id="axes_2">
   <g id="patch_7">
    <path d="
M53.955 389.808
L340.594 389.808
L340.594 236.084
L53.955 236.084
z
" style="fill:#ffffff;"/>
   </g>
   <g id="line2d_64">
    <path clip-path="url(#p22259471d2)" d="
M53.955 250.059
L97.0985 278.934
L140.242 292.161
L165.479 294.797
L183.385 295.597
L197.275 298.278
L218.218 301.93
L226.529 302.202
L233.86 298.833
L251.766 299.463
L269.672 302.671
L294.91 302.866
L312.816 303.323" style="fill:none;stroke:#ff0000;stroke-linecap:square;stroke-width:2;"/>
   </g>
   <g id="line2d_65">
    <path clip-path="url(#p22259471d2)" d="
M53.955 250.059
L340.594 250.059" style="fill:none;stroke:#000000;stroke-dasharray:6.000000,6.000000;stroke-dashoffset:0.0;"/>
   </g>
   <g id="line2d_66">
    <path clip-path="url(#p22259471d2)" d="
M97.0985 389.808
L97.0985 -1" style="fill:none;stroke:#0000ff;stroke-dasharray:1.000000,3.000000;stroke-dashoffset:0.0;"/>
   </g>
   <g id="line2d_67">
    <path clip-path="url(#p22259471d2)" d="
M140.242 389.808
L140.242 -1" style="fill:none;stroke:#0000ff;stroke-dasharray:1.000000,3.000000;stroke-dashoffset:0.0;"/>
   </g>
   <g id="line2d_68">
    <path clip-path="url(#p22259471d2)" d="
M183.385 389.808
L183.385 -1" style="fill:none;stroke:#0000ff;stroke-dasharray:1.000000,3.000000;stroke-dashoffset:0.0;"/>
   </g>
   <g id="line2d_69">
    <path clip-path="url(#p22259471d2)" d="
M226.529 389.808
L226.529 -1" style="fill:none;stroke:#0000ff;stroke-dasharray:1.000000,3.000000;stroke-dashoffset:0.0;"/>
   </g>
   <g id="line2d_70">
    <path clip-path="url(#p22259471d2)" d="
M269.672 389.808
L269.672 -1" style="fill:none;stroke:#0000ff;stroke-dasharray:1.000000,3.000000;stroke-dashoffset:0.0;"/>
   </g>
   <g id="line2d_71">
    <path clip-path="url(#p22259471d2)" d="
M312.816 389.808
L312.816 -1" style="fill:none;stroke:#0000ff;stroke-dasharray:1.000000,3.000000;stroke-dashoffset:0.0;"/>
   </g>
   <g id="line2d_72">
    <path clip-path="url(#p22259471d2)" d="
M355.959 389.808
L355.959 -1" style="fill:none;stroke:#0000ff;stroke-dasharray:1.000000,3.000000;stroke-dashoffset:0.0;"/>
   </g>
   <g id="line2d_73">
    <path clip-path="url(#p22259471d2)" d="
M399.103 389.808" style="fill:none;stroke:#0000ff;stroke-dasharray:1.000000,3.000000;stroke-dashoffset:0.0;"/>
   </g>
   <g id="line2d_74">
    <path clip-path="url(#p22259471d2)" d="
M442.246 389.808" style="fill:none;stroke:#0000ff;stroke-dasharray:1.000000,3.000000;stroke-dashoffset:0.0;"/>
   </g>
   <g id="patch_8">
    <path d="
M53.955 236.084
L340.594 236.084" style="fill:none;stroke:#000000;stroke-linecap:square;stroke-linejoin:miter;"/>
   </g>
   <g id="patch_9">
    <path d="
M340.594 389.808
L340.594 236.084" style="fill:none;stroke:#000000;stroke-linecap:square;stroke-linejoin:miter;"/>
   </g>
   <g id="patch_10">
    <path d="
M53.955 389.808
L340.594 389.808" style="fill:none;stroke:#000000;stroke-linecap:square;stroke-linejoin:miter;"/>
   </g>
   <g id="patch_11">
    <path d="
M53.955 389.808
L53.955 236.084" style="fill:none;stroke:#000000;stroke-linecap:square;stroke-linejoin:miter;"/>
   </g>
   <g id="matplotlib.axis_3">
    <g id="xtick_20">
     <g id="line2d_75">
      <g>
       <use style="stroke:#000000;stroke-width:0.5;" x="53.955" xlink:href="#m93b0483c22" y="389.808"/>
      </g>
     </g>
     <g id="line2d_76">
      <g>
       <use style="stroke:#000000;stroke-width:0.5;" x="53.955" xlink:href="#m741efc42ff" y="236.084"/>
      </g>
     </g>
     <g id="text_14">
      <!-- $\mathdefault{10^{0}}$ -->
      <g transform="translate(44.805 403.0283125)scale(0.1 -0.1)">
       <use transform="translate(0.0 0.4)" xlink:href="#DejaVuSerif-31"/>
       <use transform="translate(63.623046875 0.4)" xlink:href="#DejaVuSerif-30"/>
       <use transform="translate(127.24609375 59.046875)scale(0.7)" xlink:href="#DejaVuSerif-30"/>
      </g>
     </g>
    </g>
    <g id="xtick_21">
     <g id="line2d_77">
      <g>
       <use style="stroke:#000000;stroke-width:0.5;" x="197.274528809" xlink:href="#m93b0483c22" y="389.808"/>
      </g>
     </g>
     <g id="line2d_78">
      <g>
       <use style="stroke:#000000;stroke-width:0.5;" x="197.274528809" xlink:href="#m741efc42ff" y="236.084"/>
      </g>
     </g>
     <g id="text_15">
      <!-- $\mathdefault{10^{1}}$ -->
      <g transform="translate(188.124528809 403.0283125)scale(0.1 -0.1)">
       <use transform="translate(0.0 0.4)" xlink:href="#DejaVuSerif-31"/>
       <use transform="translate(63.623046875 0.4)" xlink:href="#DejaVuSerif-30"/>
       <use transform="translate(127.24609375 59.046875)scale(0.7)" xlink:href="#DejaVuSerif-31"/>
      </g>
     </g>
    </g>
    <g id="xtick_22">
     <g id="line2d_79">
      <g>
       <use style="stroke:#000000;stroke-width:0.5;" x="340.594057617" xlink:href="#m93b0483c22" y="389.808"/>
      </g>
     </g>
     <g id="line2d_80">
      <g>
       <use style="stroke:#000000;stroke-width:0.5;" x="340.594057617" xlink:href="#m741efc42ff" y="236.084"/>
      </g>
     </g>
     <g id="text_16">
      <!-- $\mathdefault{10^{2}}$ -->
      <g transform="translate(331.444057617 403.0283125)scale(0.1 -0.1)">
       <use transform="translate(0.0 0.4)" xlink:href="#DejaVuSerif-31"/>
       <use transform="translate(63.623046875 0.4)" xlink:href="#DejaVuSerif-30"/>
       <use transform="translate(127.24609375 59.046875)scale(0.7)" xlink:href="#DejaVuSerif-32"/>
      </g>
     </g>
    </g>
    <g id="xtick_23">
     <g id="line2d_81">
      <g>
       <use style="stroke:#000000;stroke-width:0.5;" x="97.0984771358" xlink:href="#m177f7580d0" y="389.808"/>
      </g>
     </g>
     <g id="line2d_82">
      <g>
       <use style="stroke:#000000;stroke-width:0.5;" x="97.0984771358" xlink:href="#m5284c7e2a0" y="236.084"/>
      </g>
     </g>
    </g>
    <g id="xtick_24">
     <g id="line2d_83">
      <g>
       <use style="stroke:#000000;stroke-width:0.5;" x="122.335793411" xlink:href="#m177f7580d0" y="389.808"/>
      </g>
     </g>
     <g id="line2d_84">
      <g>
       <use style="stroke:#000000;stroke-width:0.5;" x="122.335793411" xlink:href="#m5284c7e2a0" y="236.084"/>
      </g>
     </g>
    </g>
    <g id="xtick_25">
     <g id="line2d_85">
      <g>
       <use style="stroke:#000000;stroke-width:0.5;" x="140.241954272" xlink:href="#m177f7580d0" y="389.808"/>
      </g>
     </g>
     <g id="line2d_86">
      <g>
       <use style="stroke:#000000;stroke-width:0.5;" x="140.241954272" xlink:href="#m5284c7e2a0" y="236.084"/>
      </g>
     </g>
    </g>
    <g id="xtick_26">
     <g id="line2d_87">
      <g>
       <use style="stroke:#000000;stroke-width:0.5;" x="154.131051673" xlink:href="#m177f7580d0" y="389.808"/>
      </g>
     </g>
     <g id="line2d_88">
      <g>
       <use style="stroke:#000000;stroke-width:0.5;" x="154.131051673" xlink:href="#m5284c7e2a0" y="236.084"/>
      </g>
     </g>
    </g>
    <g id="xtick_27">
     <g id="line2d_89">
      <g>
       <use style="stroke:#000000;stroke-width:0.5;" x="165.479270547" xlink:href="#m177f7580d0" y="389.808"/>
      </g>
     </g>
     <g id="line2d_90">
      <g>
       <use style="stroke:#000000;stroke-width:0.5;" x="165.479270547" xlink:href="#m5284c7e2a0" y="236.084"/>
      </g>
     </g>
    </g>
    <g id="xtick_28">
     <g id="line2d_91">
      <g>
       <use style="stroke:#000000;stroke-width:0.5;" x="175.074052892" xlink:href="#m177f7580d0" y="389.808"/>
      </g>
     </g>
     <g id="line2d_92">
      <g>
       <use style="stroke:#000000;stroke-width:0.5;" x="175.074052892" xlink:href="#m5284c7e2a0" y="236.084"/>
      </g>
     </g>
    </g>
    <g id="xtick_29">
     <g id="line2d_93">
      <g>
       <use style="stroke:#000000;stroke-width:0.5;" x="183.385431407" xlink:href="#m177f7580d0" y="389.808"/>
      </g>
     </g>
     <g id="line2d_94">
      <g>
       <use style="stroke:#000000;stroke-width:0.5;" x="183.385431407" xlink:href="#m5284c7e2a0" y="236.084"/>
      </g>
     </g>
    </g>
    <g id="xtick_30">
     <g id="line2d_95">
      <g>
       <use style="stroke:#000000;stroke-width:0.5;" x="190.716586822" xlink:href="#m177f7580d0" y="389.808"/>
      </g>
     </g>
     <g id="line2d_96">
      <g>
       <use style="stroke:#000000;stroke-width:0.5;" x="190.716586822" xlink:href="#m5284c7e2a0" y="236.084"/>
      </g>
     </g>
    </g>
    <g id="xtick_31">
     <g id="line2d_97">
      <g>
       <use style="stroke:#000000;stroke-width:0.5;" x="240.418005944" xlink:href="#m177f7580d0" y="389.808"/>
      </g>
     </g>
     <g id="line2d_98">
      <g>
       <use style="stroke:#000000;stroke-width:0.5;" x="240.418005944" xlink:href="#m5284c7e2a0" y="236.084"/>
      </g>
     </g>
    </g>
    <g id="xtick_32">
     <g id="line2d_99">
      <g>
       <use style="stroke:#000000;stroke-width:0.5;" x="265.65532222" xlink:href="#m177f7580d0" y="389.808"/>
      </g>
     </g>
     <g id="line2d_100">
      <g>
       <use style="stroke:#000000;stroke-width:0.5;" x="265.65532222" xlink:href="#m5284c7e2a0" y="236.084"/>
      </g>
     </g>
    </g>
    <g id="xtick_33">
     <g id="line2d_101">
      <g>
       <use style="stroke:#000000;stroke-width:0.5;" x="283.56148308" xlink:href="#m177f7580d0" y="389.808"/>
      </g>
     </g>
     <g id="line2d_102">
      <g>
       <use style="stroke:#000000;stroke-width:0.5;" x="283.56148308" xlink:href="#m5284c7e2a0" y="236.084"/>
      </g>
     </g>
    </g>
    <g id="xtick_34">
     <g id="line2d_103">
      <g>
       <use style="stroke:#000000;stroke-width:0.5;" x="297.450580481" xlink:href="#m177f7580d0" y="389.808"/>
      </g>
     </g>
     <g id="line2d_104">
      <g>
       <use style="stroke:#000000;stroke-width:0.5;" x="297.450580481" xlink:href="#m5284c7e2a0" y="236.084"/>
      </g>
     </g>
    </g>
    <g id="xtick_35">
     <g id="line2d_105">
      <g>
       <use style="stroke:#000000;stroke-width:0.5;" x="308.798799355" xlink:href="#m177f7580d0" y="389.808"/>
      </g>
     </g>
     <g id="line2d_106">
      <g>
       <use style="stroke:#000000;stroke-width:0.5;" x="308.798799355" xlink:href="#m5284c7e2a0" y="236.084"/>
      </g>
     </g>
    </g>
    <g id="xtick_36">
     <g id="line2d_107">
      <g>
       <use style="stroke:#000000;stroke-width:0.5;" x="318.393581701" xlink:href="#m177f7580d0" y="389.808"/>
      </g>
     </g>
     <g id="line2d_108">
      <g>
       <use style="stroke:#000000;stroke-width:0.5;" x="318.393581701" xlink:href="#m5284c7e2a0" y="236.084"/>
      </g>
     </g>
    </g>
    <g id="xtick_37">
     <g id="line2d_109">
      <g>
       <use style="stroke:#000000;stroke-width:0.5;" x="326.704960216" xlink:href="#m177f7580d0" y="389.808"/>
      </g>
     </g>
     <g id="line2d_110">
      <g>
       <use style="stroke:#000000;stroke-width:0.5;" x="326.704960216" xlink:href="#m5284c7e2a0" y="236.084"/>
      </g>
     </g>
    </g>
    <g id="xtick_38">
     <g id="line2d_111">
      <g>
       <use style="stroke:#000000;stroke-width:0.5;" x="334.036115631" xlink:href="#m177f7580d0" y="389.808"/>
      </g>
     </g>
     <g id="line2d_112">
      <g>
       <use style="stroke:#000000;stroke-width:0.5;" x="334.036115631" xlink:href="#m5284c7e2a0" y="236.084"/>
      </g>
     </g>
    </g>
    <g id="text_17">
     <!-- number of cores -->
     <g transform="translate(156.034685059 417.7064375)scale(0.1 -0.1)">
      <use xlink:href="#DejaVuSerif-6e"/>
      <use x="64.404296875" xlink:href="#DejaVuSerif-75"/>
      <use x="128.80859375" xlink:href="#DejaVuSerif-6d"/>
      <use x="223.6328125" xlink:href="#DejaVuSerif-62"/>
      <use x="287.646484375" xlink:href="#DejaVuSerif-65"/>
      <use x="346.826171875" xlink:href="#DejaVuSerif-72"/>
      <use x="394.62890625" xlink:href="#DejaVuSerif-20"/>
      <use x="426.416015625" xlink:href="#DejaVuSerif-6f"/>
      <use x="486.62109375" xlink:href="#DejaVuSerif-66"/>
      <use x="523.6328125" xlink:href="#DejaVuSerif-20"/>
      <use x="555.419921875" xlink:href="#DejaVuSerif-63"/>
      <use x="611.42578125" xlink:href="#DejaVuSerif-6f"/>
      <use x="671.630859375" xlink:href="#DejaVuSerif-72"/>
      <use x="719.43359375" xlink:href="#DejaVuSerif-65"/>
      <use x="778.61328125" xlink:href="#DejaVuSerif-73"/>
     </g>
    </g>
   </g>
   <g id="matplotlib.axis_4">
    <g id="ytick_8">
     <g id="line2d_113">
      <g>
       <use style="stroke:#000000;stroke-width:0.5;" x="53.955" xlink:href="#m728421d6d4" y="389.808"/>
      </g>
     </g>
     <g id="line2d_114">
      <g>
       <use style="stroke:#000000;stroke-width:0.5;" x="340.594057617" xlink:href="#mcb0005524f" y="389.808"/>
      </g>
     </g>
     <g id="text_18">
      <!-- 0.0 -->
      <defs>
       <path d="
M9.42188 5.07812
Q9.42188 7.8125 11.2812 9.71875
Q13.1406 11.625 15.9219 11.625
Q18.6094 11.625 20.5 9.71875
Q22.4062 7.8125 22.4062 5.07812
Q22.4062 2.39062 20.5 0.484375
Q18.6094 -1.42188 15.9219 -1.42188
Q13.1406 -1.42188 11.2812 0.453125
Q9.42188 2.34375 9.42188 5.07812" id="DejaVuSerif-2e"/>
      </defs>
      <g transform="translate(35.3753125 392.567375)scale(0.1 -0.1)">
       <use xlink:href="#DejaVuSerif-30"/>
       <use x="63.623046875" xlink:href="#DejaVuSerif-2e"/>
       <use x="95.41015625" xlink:href="#DejaVuSerif-30"/>
      </g>
     </g>
    </g>
    <g id="ytick_9">
     <g id="line2d_115">
      <g>
       <use style="stroke:#000000;stroke-width:0.5;" x="53.955" xlink:href="#m728421d6d4" y="361.858181818"/>
      </g>
     </g>
     <g id="line2d_116">
      <g>
       <use style="stroke:#000000;stroke-width:0.5;" x="340.594057617" xlink:href="#mcb0005524f" y="361.858181818"/>
      </g>
     </g>
     <g id="text_19">
      <!-- 0.2 -->
      <g transform="translate(35.6925 364.617556818)scale(0.1 -0.1)">
       <use xlink:href="#DejaVuSerif-30"/>
       <use x="63.623046875" xlink:href="#DejaVuSerif-2e"/>
       <use x="95.41015625" xlink:href="#DejaVuSerif-32"/>
      </g>
     </g>
    </g>
    <g id="ytick_10">
     <g id="line2d_117">
      <g>
       <use style="stroke:#000000;stroke-width:0.5;" x="53.955" xlink:href="#m728421d6d4" y="333.908363636"/>
      </g>
     </g>
     <g id="line2d_118">
      <g>
       <use style="stroke:#000000;stroke-width:0.5;" x="340.594057617" xlink:href="#mcb0005524f" y="333.908363636"/>
      </g>
     </g>
     <g id="text_20">
      <!-- 0.4 -->
      <g transform="translate(35.214375 336.667738636)scale(0.1 -0.1)">
       <use xlink:href="#DejaVuSerif-30"/>
       <use x="63.623046875" xlink:href="#DejaVuSerif-2e"/>
       <use x="95.41015625" xlink:href="#DejaVuSerif-34"/>
      </g>
     </g>
    </g>
    <g id="ytick_11">
     <g id="line2d_119">
      <g>
       <use style="stroke:#000000;stroke-width:0.5;" x="53.955" xlink:href="#m728421d6d4" y="305.958545455"/>
      </g>
     </g>
     <g id="line2d_120">
      <g>
       <use style="stroke:#000000;stroke-width:0.5;" x="340.594057617" xlink:href="#mcb0005524f" y="305.958545455"/>
      </g>
     </g>
     <g id="text_21">
      <!-- 0.6 -->
      <g transform="translate(35.3409375 308.717920455)scale(0.1 -0.1)">
       <use xlink:href="#DejaVuSerif-30"/>
       <use x="63.623046875" xlink:href="#DejaVuSerif-2e"/>
       <use x="95.41015625" xlink:href="#DejaVuSerif-36"/>
      </g>
     </g>
    </g>
    <g id="ytick_12">
     <g id="line2d_121">
      <g>
       <use style="stroke:#000000;stroke-width:0.5;" x="53.955" xlink:href="#m728421d6d4" y="278.008727273"/>
      </g>
     </g>
     <g id="line2d_122">
      <g>
       <use style="stroke:#000000;stroke-width:0.5;" x="340.594057617" xlink:href="#mcb0005524f" y="278.008727273"/>
      </g>
     </g>
     <g id="text_22">
      <!-- 0.8 -->
      <defs>
       <path d="
M46.5781 19.9219
Q46.5781 27.7344 42.6875 32.0469
Q38.8125 36.375 31.7812 36.375
Q24.75 36.375 20.875 32.0469
Q17 27.7344 17 19.9219
Q17 12.0625 20.875 7.73438
Q24.75 3.42188 31.7812 3.42188
Q38.8125 3.42188 42.6875 7.73438
Q46.5781 12.0625 46.5781 19.9219
M44.5781 55.3281
Q44.5781 61.9688 41.2031 65.6719
Q37.8438 69.3906 31.7812 69.3906
Q25.7812 69.3906 22.3906 65.6719
Q19 61.9688 19 55.3281
Q19 48.6406 22.3906 44.9219
Q25.7812 41.2188 31.7812 41.2188
Q37.8438 41.2188 41.2031 44.9219
Q44.5781 48.6406 44.5781 55.3281
M39.3125 38.8125
Q47.6094 37.7031 52.25 32.6875
Q56.8906 27.6875 56.8906 19.9219
Q56.8906 9.67188 50.3906 4.125
Q43.8906 -1.42188 31.7812 -1.42188
Q19.7344 -1.42188 13.2031 4.125
Q6.6875 9.67188 6.6875 19.9219
Q6.6875 27.6875 11.3281 32.6875
Q15.9688 37.7031 24.3125 38.8125
Q16.9375 40.1406 13 44.4062
Q9.07812 48.6875 9.07812 55.3281
Q9.07812 64.1094 15.125 69.1562
Q21.1875 74.2188 31.7812 74.2188
Q42.3906 74.2188 48.4375 69.1562
Q54.5 64.1094 54.5 55.3281
Q54.5 48.6875 50.5625 44.4062
Q46.625 40.1406 39.3125 38.8125" id="DejaVuSerif-38"/>
      </defs>
      <g transform="translate(35.3846875 280.768102273)scale(0.1 -0.1)">
       <use xlink:href="#DejaVuSerif-30"/>
       <use x="63.623046875" xlink:href="#DejaVuSerif-2e"/>
       <use x="95.41015625" xlink:href="#DejaVuSerif-38"/>
      </g>
     </g>
    </g>
    <g id="ytick_13">
     <g id="line2d_123">
      <g>
       <use style="stroke:#000000;stroke-width:0.5;" x="53.955" xlink:href="#m728421d6d4" y="250.058909091"/>
      </g>
     </g>
     <g id="line2d_124">
      <g>
       <use style="stroke:#000000;stroke-width:0.5;" x="340.594057617" xlink:href="#mcb0005524f" y="250.058909091"/>
      </g>
     </g>
     <g id="text_23">
      <!-- 1.0 -->
      <g transform="translate(35.93625 252.818284091)scale(0.1 -0.1)">
       <use xlink:href="#DejaVuSerif-31"/>
       <use x="63.623046875" xlink:href="#DejaVuSerif-2e"/>
       <use x="95.41015625" xlink:href="#DejaVuSerif-30"/>
      </g>
     </g>
    </g>
    <g id="text_24">
     <!-- efficency -->
     <defs>
      <path d="
M21.5781 -9.51562
L25 -0.875
L5.60938 46.6875
L-0.296875 46.6875
L-0.296875 51.9062
L23.5781 51.9062
L23.5781 46.6875
L15.2812 46.6875
L29.8906 10.9844
L44.4844 46.6875
L36.7188 46.6875
L36.7188 51.9062
L56.2031 51.9062
L56.2031 46.6875
L50.3906 46.6875
L26.6094 -11.7188
Q24.1719 -17.7812 21.1875 -20
Q18.2188 -22.2188 12.7969 -22.2188
Q10.5 -22.2188 8.07812 -21.8281
Q5.67188 -21.4375 3.21875 -20.7031
L3.21875 -10.7969
L7.8125 -10.7969
Q8.10938 -14.1094 9.5 -15.5469
Q10.8906 -17 13.8125 -17
Q16.5 -17 18.1406 -15.5
Q19.7812 -14.0156 21.5781 -9.51562" id="DejaVuSerif-79"/>
     </defs>
     <g transform="translate(27.9925 335.54678125)rotate(-90.0)scale(0.1 -0.1)">
      <use xlink:href="#DejaVuSerif-65"/>
      <use x="59.1796875" xlink:href="#DejaVuSerif-66"/>
      <use x="96.19140625" xlink:href="#DejaVuSerif-66"/>
      <use x="133.203125" xlink:href="#DejaVuSerif-69"/>
      <use x="165.185546875" xlink:href="#DejaVuSerif-63"/>
      <use x="221.19140625" xlink:href="#DejaVuSerif-65"/>
      <use x="280.37109375" xlink:href="#DejaVuSerif-6e"/>
      <use x="344.775390625" xlink:href="#DejaVuSerif-63"/>
      <use x="400.78125" xlink:href="#DejaVuSerif-79"/>
     </g>
    </g>
   </g>
   <g id="text_25">
    <!-- efficency -->
    <g transform="translate(170.153591309 231.084)scale(0.12 -0.12)">
     <use xlink:href="#DejaVuSerif-65"/>
     <use x="59.1796875" xlink:href="#DejaVuSerif-66"/>
     <use x="96.19140625" xlink:href="#DejaVuSerif-66"/>
     <use x="133.203125" xlink:href="#DejaVuSerif-69"/>
     <use x="165.185546875" xlink:href="#DejaVuSerif-63"/>
     <use x="221.19140625" xlink:href="#DejaVuSerif-65"/>
     <use x="280.37109375" xlink:href="#DejaVuSerif-6e"/>
     <use x="344.775390625" xlink:href="#DejaVuSerif-63"/>
     <use x="400.78125" xlink:href="#DejaVuSerif-79"/>
    </g>
   </g>
  </g>
 </g>
 <defs>
  <clipPath id="p780b471650">
   <rect height="153.724" width="286.639057617" x="53.955" y="26.168"/>
  </clipPath>
  <clipPath id="p22259471d2">
   <rect height="153.724" width="286.639057617" x="53.955" y="236.084"/>
  </clipPath>
 </defs>
</svg>
